<svg xmlns="http://www.w3.org/2000/svg"  viewBox="0 0 100 100" width="200px" height="200px"><circle cx="14" cy="29" r="2" fill="#ee3e54"/><circle cx="78" cy="13" r="1" fill="#f1bc19"/><circle cx="51" cy="50" r="37" fill="#fce0a2"/><circle cx="84" cy="15" r="4" fill="#f1bc19"/><circle cx="88" cy="24" r="2" fill="#ee3e54"/><circle cx="82" cy="76" r="2" fill="#fbcd59"/><circle cx="16" cy="63" r="4" fill="#fbcd59"/><circle cx="26" cy="87" r="2" fill="#ee3e54"/><circle cx="20.5" cy="54.5" r="2.5" fill="#fff"/><circle cx="22" cy="67" r="1" fill="#f1bc19"/><circle cx="81" cy="34" r="1" fill="#fff"/><path fill="#e1e0d8" d="M66.719,73H35.281C31.26,73,28,69.74,28,65.719V34.281C28,30.26,31.26,27,35.281,27h31.438 C70.74,27,74,30.26,74,34.281v31.438C74,69.74,70.74,73,66.719,73z"/><path fill="#472b29" d="M66.719,73.7H35.281c-4.401,0-7.981-3.58-7.981-7.981V34.281c0-4.401,3.581-7.981,7.981-7.981 h31.438c4.401,0,7.981,3.58,7.981,7.981v31.438C74.7,70.12,71.12,73.7,66.719,73.7z M35.281,27.7c-3.629,0-6.581,2.952-6.581,6.581 v31.438c0,3.629,2.952,6.581,6.581,6.581h31.438c3.629,0,6.581-2.952,6.581-6.581V34.281c0-3.629-2.952-6.581-6.581-6.581 L35.281,27.7z"/><path fill="#472b29" d="M31.5,40.167c-0.276,0-0.5-0.224-0.5-0.5v-4.333C31,32.393,33.393,30,36.333,30h14 c0.276,0,0.5,0.224,0.5,0.5s-0.224,0.5-0.5,0.5h-14C33.944,31,32,32.944,32,35.333v4.333C32,39.943,31.776,40.167,31.5,40.167z"/><path fill="#472b29" d="M42.583,70h-6.25C33.393,70,31,67.607,31,64.667V44.333c0-0.276,0.224-0.5,0.5-0.5 s0.5,0.224,0.5,0.5v20.333C32,67.056,33.944,69,36.333,69h6.25c0.276,0,0.5,0.224,0.5,0.5S42.86,70,42.583,70z"/><path fill="#472b29" d="M65.667,70h-19.75c-0.276,0-0.5-0.224-0.5-0.5s0.224-0.5,0.5-0.5h19.75 C68.057,69,70,67.056,70,64.667v-5.083c0-0.276,0.224-0.5,0.5-0.5s0.5,0.224,0.5,0.5v5.083C71,67.607,68.607,70,65.667,70z"/><path fill="#472b29" d="M70.5,56.167c-0.276,0-0.5-0.224-0.5-0.5V35.333C70,32.944,68.057,31,65.667,31h-2.75 c-0.276,0-0.5-0.224-0.5-0.5s0.224-0.5,0.5-0.5h2.75C68.607,30,71,32.393,71,35.333v20.333C71,55.943,70.776,56.167,70.5,56.167z"/><path fill="#472b29" d="M59.5,31h-6.25c-0.276,0-0.5-0.224-0.5-0.5s0.224-0.5,0.5-0.5h6.25c0.276,0,0.5,0.224,0.5,0.5 S59.776,31,59.5,31z"/><path fill="#7c8a9f" d="M57.636,41.936l-2.189-3.788c-0.28-0.408-0.742-0.652-1.237-0.652h-6.419 c-0.495,0-0.958,0.244-1.237,0.652l-2.189,3.788c-0.28,0.408-0.742,0.652-1.237,0.652H38.75c-1.243,0-2.25,1.007-2.25,2.25v15.416 c0,1.243,1.007,2.25,2.25,2.25H63.25c1.243,0,2.25-1.007,2.25-2.25V44.838c0-1.243-1.007-2.25-2.25-2.25h-4.376 C58.379,42.588,57.916,42.344,57.636,41.936z"/><path fill="#472b29" d="M63.25,63.004h-24.5c-1.517,0-2.75-1.234-2.75-2.75V44.838c0-1.517,1.233-2.75,2.75-2.75h4.377 c0.329,0,0.638-0.163,0.825-0.436l2.168-3.754c0.394-0.578,1.011-0.903,1.671-0.903h6.418c0.659,0,1.276,0.325,1.65,0.87 l2.198,3.802c0.188,0.264,0.491,0.421,0.815,0.421h4.377c1.517,0,2.75,1.233,2.75,2.75v15.416 C66,61.771,64.767,63.004,63.25,63.004z M38.75,43.088c-0.965,0-1.75,0.785-1.75,1.75v15.416c0,0.965,0.785,1.75,1.75,1.75h24.5 c0.965,0,1.75-0.785,1.75-1.75V44.838c0-0.965-0.785-1.75-1.75-1.75h-4.377c-0.659,0-1.276-0.325-1.649-0.87l-0.021-0.033 l-2.188-3.787c-0.167-0.24-0.476-0.403-0.806-0.403h-6.418c-0.33,0-0.639,0.163-0.826,0.436l-2.168,3.754 c-0.395,0.578-1.011,0.903-1.67,0.903H38.75z"/><circle cx="51" cy="51.5" r="7.5" fill="#ededeb"/><path fill="#472b29" d="M51,59.5c-4.411,0-8-3.588-8-8s3.589-8,8-8s8,3.589,8,8S55.411,59.5,51,59.5z M51,44.5 c-3.859,0-7,3.14-7,7c0,3.859,3.141,7,7,7s7-3.14,7-7C58,47.641,54.859,44.5,51,44.5z"/><circle cx="51" cy="51.5" r="5.042" fill="#7c8a9f"/><path fill="#472b29" d="M51,57.042c-3.056,0-5.542-2.486-5.542-5.542s2.486-5.542,5.542-5.542s5.542,2.486,5.542,5.542 S54.056,57.042,51,57.042z M51,46.958c-2.505,0-4.542,2.038-4.542,4.542s2.037,4.542,4.542,4.542s4.542-2.037,4.542-4.542 S53.505,46.958,51,46.958z"/><g><circle cx="61.5" cy="46.5" r="1.5" fill="#fbcd59"/><path fill="#472b29" d="M61.5,48.25c-0.965,0-1.75-0.785-1.75-1.75s0.785-1.75,1.75-1.75s1.75,0.785,1.75,1.75 S62.465,48.25,61.5,48.25z M61.5,45.25c-0.689,0-1.25,0.561-1.25,1.25s0.561,1.25,1.25,1.25s1.25-0.561,1.25-1.25 S62.189,45.25,61.5,45.25z"/></g><g><path fill="#7c8a9f" d="M42.5,40.476h-4.125v-1.234c0-0.455,0.37-0.825,0.825-0.825h2.475c0.455,0,0.825,0.37,0.825,0.825 V40.476z"/><path fill="#472b29" d="M42.5,40.976h-4.125c-0.276,0-0.5-0.224-0.5-0.5v-1.234c0-0.731,0.595-1.325,1.325-1.325h2.475 c0.73,0,1.325,0.594,1.325,1.325v1.234C43,40.752,42.776,40.976,42.5,40.976z M38.875,39.976H42v-0.734 c0-0.179-0.146-0.325-0.325-0.325H39.2c-0.18,0-0.325,0.146-0.325,0.325V39.976z"/></g></svg>